<svg xmlns="http://www.w3.org/2000/svg" viewBox="0 0 603.1 584">
	<title>Cart</title>
	<path fill-rule="evenodd" clip-rule="evenodd" fill="#005699" d="M597.3 563.1l-24.8-388.8h.2l-37.1-52.4h-4.5v79.3h16.4l21.2 334.9H33.1l21.4-334.9H72v-79.3h-2.7L29 174.3h.4L4.6 563.1h592.7zM143.5 231.7c-7.1 4.3-11.8 12-11.8 21 0 13.6 11 24.6 24.6 24.6s24.4-11 24.4-24.6c0-8.4-4.1-16-10.5-20.3.5-10.8 1.4-21.2 3-31.2h254.1c1.4 9.9 2.7 20.3 3.2 31.2-6.4 4.3-10.7 11.8-10.7 20.3 0 13.6 11 24.6 24.4 24.6 13.5 0 24.6-11 24.6-24.6 0-8.8-4.6-16.5-11.6-20.8-.5-10.6-1.6-20.8-2.9-30.7h63.4v-79.3h-86.2C401.2 57.5 349 24.4 296.9 24.4c-41.5 0-79.8 20.6-107.6 58.3-8.6 11.7-16 24.8-22.3 39.1H85.3v79.3h60.9c-1.2 10-2.1 20.2-2.7 30.6zm67.4-133C233.5 68.2 264 51.3 297 51.3c39.2 0 78.7 23.9 104.6 70.5h-205c4.3-8.1 8.9-16.1 14.3-23.1z"/>
</svg>