<svg xmlns="http://www.w3.org/2000/svg" viewBox="0 0 612 792">
	<title>Account</title>
	<g fill="#005699">
		<path d="M166.1 339.8c-.2 1.8-.2 3.5-.2 5.3v-5.3h.2zM266.1 479.5c-.2 0-.6 0-.8-.2h.6l.2.2z"/>
	</g>
	<g fill="#005699">
		<path d="M446.1 339.8v5.3c0-1.8 0-3.5-.2-5.3h.2z"/>
		<path d="M306.2 90C137.2 90 0 227.4 0 396.2c0 78.5 29.5 152.9 83.3 210.1C142 668 220.9 702.2 306 702.2c84.9 0 164.1-34.2 222.3-95.9 53.8-57 83.5-131.5 83.5-210.1C612 227.4 474.6 90 306.2 90zM30.3 396.2c0-152.1 123.6-275.7 275.7-275.7 151.9 0 275.5 123.6 275.5 275.7 0 64.7-22.4 126.6-63.9 176.3-11.2-10.6-26.5-18.6-47.4-24.9-79.2-14.2-97.9-29.5-100.8-58.9l76.5-6.1V345.1c0-1.8 0-3.5-.2-5.3-2.6-75.1-64.3-135-139.8-135-75.7 0-137.4 59.9-140 135-.2 1.8-.2 3.5-.2 5.3v137.4l76.7 6.1c-2.8 29.3-21.8 44.8-102.6 59.3-19.6 6.1-34.8 14-46 24.7C53 523 30.3 461.1 30.3 396.2zm286.3 88.5c-4.9 1.8-9.9 2.8-15 2.8-4.9 0-9.7-1.2-14.4-3.7-12.6-6.3-24.3-20-34.2-36.8-10.1-17.1-18.2-37.9-22.8-57l-13.8-34.4h7.3C306 345 330.1 313.3 341.4 302c13.8 27.9 41.7 53.6 41.7 53.6h12.4l-12.8 31.6c0 .2 0 .4-.2.8-4.3 18.6-12 38.1-21.8 54.6-11.9 20-27 36.1-44.1 42.1zm30.3-5.4c-.4 0-.6.2-1 .2l.2-.2h.8zm-80.8.2c-.2 0-.6 0-.8-.2h.6l.2.2zm-66.6-155.6c0-116.5 213-119.5 213 0 0-84.6-213-81.6-213 0zm207.9 81.7c0 5.5-4.3 9.7-9.5 9.7-2.8 0-5.3-1-6.9-2.8-1.8-1.6-2.8-4.1-2.8-6.9 0-4.7 3.2-8.3 7.7-9.1.6-.4 1.2-.4 2-.4 5.4.1 9.5 4.2 9.5 9.5zm-193.8-9.4c1 0 1.8.2 2.6.6 4.3.8 7.1 4.5 7.1 8.9 0 2.6-1 4.9-2.6 6.5-1.6 2-4.3 3.2-7.1 3.2-5.3 0-9.7-4.3-9.7-9.7.1-5.4 4.5-9.5 9.7-9.5zm92.6 275.5c-72.3 0-139.6-27.3-191.4-77.1 7.7-7.3 18.2-12.8 32.4-17.1 67.8-12.2 109.9-27.9 122.2-69.2 10.1 6.3 20.8 9.7 32.4 9.7 14.8 0 28.3-4.5 40.7-12 11.4 42.9 53.4 58.9 121 71 15.2 4.7 26.1 10.4 33.8 17.6-51.6 49.8-119 77.1-191.1 77.1z"/>
		<path d="M346.9 479.3c-.4 0-.6.2-1 .2l.2-.2h.8z"/>
	</g>
	<g fill="#005699">
		<path d="M225.4 355.7v.6l-1.6-.6zM266.1 479.5c-.2 0-.6 0-.8-.2h.6l.2.2zM346.9 479.3c-.4 0-.6.2-1 .2l.2-.2h.8z"/>
	</g>
	<g fill="#005699">
		<path d="M225.4 355.7v.6l-1.6-.6zM266.1 479.5c-.2 0-.6 0-.8-.2h.6l.2.2zM346.9 479.3c-.4 0-.6.2-1 .2l.2-.2h.8z"/>
		<path d="M225.4 355.7v.6l-1.6-.6zM266.1 479.5c-.2 0-.6 0-.8-.2h.6l.2.2zM346.9 479.3c-.4 0-.6.2-1 .2l.2-.2h.8z"/>
	</g>
	<path fill="#005699" d="M266.1 479.5c-.2 0-.6 0-.8-.2h.6l.2.2zM346.9 479.3c-.4 0-.6.2-1 .2l.2-.2h.8zM225.4 355.7v.6l-1.6-.6z"/>
</svg>